<svg xmlns="http://www.w3.org/2000/svg" width="420" height="760" viewBox="0 0 420 760">
  <defs>
    <style>
      .mono { font-family: ui-monospace, SFMono-Regular, Menlo, Monaco, Consolas, "Liberation Mono", monospace; fill:#111; }
      .b { font-weight: 700; }
      .n { font-weight: 400; }
      .xs { font-size: 11px; }
      .sm { font-size: 12px; }
      .md { font-size: 14px; }
      .lg { font-size: 18px; letter-spacing: 1px; }
      .dot { stroke:#111; stroke-width:1.4; stroke-dasharray:2 4; }
    </style>
  </defs>

  <!-- receipt body -->
  <rect x="10" y="10" width="400" height="740" fill="#fff" stroke="#111" stroke-width="1.6" stroke-dasharray="2 4"></rect>

  <!-- title -->
  <text x="210" y="42" class="mono b lg" text-anchor="middle">PRYZEN TICKET</text>

  <!-- meta -->
  <text x="24" y="64" class="mono n sm">Ticket ID: PRYZ-8A12F3C9</text>
  <text x="24" y="80" class="mono n sm">Placed: 2026-02-05 10:22:11 UTC</text>
  <line x1="24" y1="94" x2="396" y2="94" class="dot"></line>

  <!-- chain -->
  <text x="24" y="116" class="mono n sm">Chain:</text>
  <text x="103" y="116" class="mono b sm">Polygon</text>
  <text x="172" y="116" class="mono n sm">• Token: USDT</text>
  <line x1="24" y1="128" x2="396" y2="128" class="dot"></line>

  <!-- selections -->
  <text x="24" y="148" class="mono b md">SELECTIONS</text>

  <!-- row 1 -->
  <text x="24" y="170" class="mono b sm">Football • LaLiga • 2026-02-08 20:00</text>
  <text x="24" y="189" class="mono n md">Real Madrid vs Barcelona</text>
  <text x="24" y="208" class="mono n sm">1X2: Real Madrid</text>
  <text x="396" y="208" class="mono b sm" text-anchor="end">1.85</text>
  <line x1="24" y1="218" x2="396" y2="218" class="dot"></line>

  <!-- row 2 -->
  <text x="24" y="240" class="mono b sm">Basketball • NBA • 2026-02-09 01:30</text>
  <text x="24" y="259" class="mono n md">Lakers vs Warriors</text>
  <text x="24" y="278" class="mono n sm">Total Points: Over 229.5</text>
  <text x="396" y="278" class="mono b sm" text-anchor="end">1.92</text>
  <line x1="24" y1="288" x2="396" y2="288" class="dot"></line>

  <!-- row 3 -->
  <text x="24" y="310" class="mono b sm">Football • Premier League • 2026-02-09 17:30</text>
  <text x="24" y="329" class="mono n md">Arsenal vs Man City</text>
  <text x="24" y="348" class="mono n sm">Both Teams To Score: Yes</text>
  <text x="396" y="348" class="mono b sm" text-anchor="end">1.70</text>
  <line x1="24" y1="360" x2="396" y2="360" class="dot"></line>

  <!-- summary -->
  <text x="24" y="386" class="mono b md">SUMMARY</text>

  <text x="24" y="410" class="mono n md">Stake</text>
  <text x="396" y="410" class="mono b md" text-anchor="end">25.00 USDT</text>

  <text x="24" y="436" class="mono n md">Total Odds</text>
  <text x="396" y="436" class="mono b md" text-anchor="end">6.04</text>

  <text x="24" y="462" class="mono n md">Possible Payout</text>
  <text x="396" y="462" class="mono b md" text-anchor="end">151.05 USDT</text>

  <line x1="24" y1="476" x2="396" y2="476" class="dot"></line>

  <!-- qr -->
  <text x="24" y="500" class="mono b md">VERIFY</text>
  <rect x="24" y="514" width="116" height="116" fill="#fff" stroke="#111" stroke-width="1.2" stroke-dasharray="2 3"></rect>
  <image x="28" y="518" width="108" height="108" href="/landing/wolf-mascot-colored.png" preserveAspectRatio="xMidYMid slice"></image>

  <text x="154" y="536" class="mono n sm">https://pryzen.io/t/PRYZ-8A12F3C9</text>
  <text x="154" y="558" class="mono n sm">Chain: Polygon</text>
  <text x="154" y="576" class="mono n sm">Token: USDT</text>
  <text x="154" y="594" class="mono n sm">Payout: 151.05 USDT</text>

  <line x1="24" y1="646" x2="396" y2="646" class="dot"></line>
  <text x="210" y="668" class="mono n xs" text-anchor="middle">Scan to verify ticket authenticity</text>
</svg>
